<?xml version="1.0" encoding="iso-8859-1"?>
<!-- Uploaded to: SVG Repo, www.svgrepo.com, Generator: SVG Repo Mixer Tools -->
<!DOCTYPE svg PUBLIC "-//W3C//DTD SVG 1.1//EN" "http://www.w3.org/Graphics/SVG/1.1/DTD/svg11.dtd">
<svg fill="#000000" height="800px" width="800px" version="1.1" id="Capa_1" xmlns="http://www.w3.org/2000/svg" xmlns:xlink="http://www.w3.org/1999/xlink" 
	 viewBox="0 0 465 465" xml:space="preserve">
<g>
	<path d="M105.447,411.92h130.359c15.257,0,27.67-12.413,27.67-27.67V27.67c0-15.257-12.413-27.67-27.67-27.67H105.447
		c-15.257,0-27.67,12.413-27.67,27.67V384.25C77.777,399.507,90.19,411.92,105.447,411.92z M235.807,396.92H105.447
		c-6.986,0-12.67-5.684-12.67-12.67V213.375h155.699V384.25C248.477,391.236,242.793,396.92,235.807,396.92z M105.447,15h130.359
		c6.986,0,12.67,5.684,12.67,12.67v170.704H92.777V27.67C92.777,20.684,98.461,15,105.447,15z"/>
	<path d="M394.586,198.375H281.977c-4.143,0-7.5,3.358-7.5,7.5s3.357,7.5,7.5,7.5h83.109v70.462h-48.938
		c-15.257,0-27.67,12.413-27.67,27.671v40.359c0,15.257,12.413,27.67,27.67,27.67h48.938V450H70.414
		c-16.938,0-30.718-13.78-30.718-30.718v-175.19c0-13.622,8.745-25.434,21.762-29.394c3.963-1.206,6.198-5.395,4.993-9.358
		s-5.393-6.197-9.358-4.993c-19.377,5.895-32.396,23.474-32.396,43.744v175.19c0,25.209,20.509,45.718,45.718,45.718h324.172
		c25.209,0,45.718-20.509,45.718-45.718v-175.19C440.304,218.883,419.795,198.375,394.586,198.375z M316.147,364.537
		c-6.986,0-12.67-5.684-12.67-12.67v-40.359c0-6.987,5.684-12.671,12.67-12.671h48.938v65.7H316.147z M425.304,419.282
		c0,16.938-13.78,30.718-30.718,30.718h-14.5V213.375h14.5c16.938,0,30.718,13.78,30.718,30.718V419.282z"/>
	<path d="M215.977,297.647h-89.973c-4.143,0-7.5,3.358-7.5,7.5s3.357,7.5,7.5,7.5h89.973c4.143,0,7.5-3.358,7.5-7.5
		S220.119,297.647,215.977,297.647z"/>
	<path d="M215.249,340.669h-89.973c-4.143,0-7.5,3.358-7.5,7.5s3.357,7.5,7.5,7.5h89.973c4.143,0,7.5-3.358,7.5-7.5
		S219.392,340.669,215.249,340.669z"/>
	<path d="M215.977,254.626h-89.973c-4.143,0-7.5,3.358-7.5,7.5s3.357,7.5,7.5,7.5h89.973c4.143,0,7.5-3.358,7.5-7.5
		S220.119,254.626,215.977,254.626z"/>
	<path d="M125.277,173.375h20c4.143,0,7.5-3.358,7.5-7.5s-3.357-7.5-7.5-7.5h-12.5V55h75.699v103.375h-33.199
		c-4.143,0-7.5,3.358-7.5,7.5s3.357,7.5,7.5,7.5h40.699c4.143,0,7.5-3.358,7.5-7.5V47.5c0-4.142-3.357-7.5-7.5-7.5h-90.699
		c-4.143,0-7.5,3.358-7.5,7.5v118.375C117.777,170.017,121.135,173.375,125.277,173.375z"/>
</g>
</svg>