<?xml version="1.0" encoding="UTF-8" standalone="no"?>
<!-- Created with Inkscape (http://www.inkscape.org/) -->

<svg
   width="299.22723"
   height="332.61176"
   viewBox="0 0 79.170538 88.003526"
   version="1.1"
   id="svg12"
   xml:space="preserve"
   inkscape:version="1.3.2 (091e20e, 2023-11-25)"
   sodipodi:docname="1 Phone Thinner details.svg"
   xmlns:inkscape="http://www.inkscape.org/namespaces/inkscape"
   xmlns:sodipodi="http://sodipodi.sourceforge.net/DTD/sodipodi-0.dtd"
   xmlns:xlink="http://www.w3.org/1999/xlink"
   xmlns="http://www.w3.org/2000/svg"
   xmlns:svg="http://www.w3.org/2000/svg"><sodipodi:namedview
     id="namedview14"
     pagecolor="#ffffff"
     bordercolor="#000000"
     borderopacity="0.25"
     inkscape:showpageshadow="2"
     inkscape:pageopacity="0.0"
     inkscape:pagecheckerboard="0"
     inkscape:deskcolor="#d1d1d1"
     inkscape:document-units="mm"
     showgrid="false"
     inkscape:zoom="1.6083661"
     inkscape:cx="791.17558"
     inkscape:cy="736.15079"
     inkscape:window-width="1440"
     inkscape:window-height="847"
     inkscape:window-x="266"
     inkscape:window-y="81"
     inkscape:window-maximized="0"
     inkscape:current-layer="g13" /><defs
     id="defs9"><linearGradient
       id="linearGradient14"
       inkscape:collect="always"><stop
         style="stop-color:#5d5d5f;stop-opacity:1;"
         offset="0"
         id="stop14" /><stop
         style="stop-color:#38383a;stop-opacity:1;"
         offset="1"
         id="stop15" /></linearGradient><linearGradient
       id="linearGradient9"
       inkscape:collect="always"><stop
         style="stop-color:#9e9ea0;stop-opacity:1;"
         offset="0"
         id="stop9" /><stop
         style="stop-color:#1b1b1b;stop-opacity:1;"
         offset="1"
         id="stop10" /></linearGradient><linearGradient
       id="linearGradient1"
       inkscape:collect="always"><stop
         style="stop-color:#f8faf9;stop-opacity:1;"
         offset="0"
         id="stop1" /><stop
         style="stop-color:#e8ebe4;stop-opacity:1;"
         offset="1"
         id="stop2" /></linearGradient><linearGradient
       inkscape:collect="always"
       xlink:href="#linearGradient1"
       id="linearGradient2"
       x1="715.04498"
       y1="630.92206"
       x2="778.13715"
       y2="630.92206"
       gradientUnits="userSpaceOnUse" /><linearGradient
       inkscape:collect="always"
       xlink:href="#linearGradient9"
       id="linearGradient10"
       x1="684.81329"
       y1="630.97913"
       x2="808.48077"
       y2="630.97913"
       gradientUnits="userSpaceOnUse"
       gradientTransform="matrix(1.3375335,0,0,1.3375335,-827.45717,-737.46956)" /><linearGradient
       inkscape:collect="always"
       xlink:href="#linearGradient14"
       id="linearGradient15"
       x1="642.93091"
       y1="795.64258"
       x2="934.52808"
       y2="795.64258"
       gradientUnits="userSpaceOnUse"
       gradientTransform="matrix(1.3375335,0,0,1.3375335,-827.45717,-737.46956)" /><linearGradient
       inkscape:collect="always"
       xlink:href="#linearGradient9"
       id="linearGradient17"
       x1="684.11499"
       y1="779.67322"
       x2="808.70264"
       y2="779.67322"
       gradientUnits="userSpaceOnUse"
       gradientTransform="matrix(1.3375335,0,0,1.3375335,-827.45717,-737.46956)" /></defs><g
     inkscape:label="trying to remove black"
     inkscape:groupmode="layer"
     id="g14"
     style="display:inline"
     transform="translate(-169.04335,-146.93732)"><g
       id="g13"
       transform="matrix(0.19781436,0,0,0.19781436,163.68291,145.88207)">
	<path
   id="path15"
   style="fill:url(#linearGradient17);stroke:#141416;stroke-width:1.14723;stroke-dasharray:none;stroke-opacity:1"
   d="m 85.469526,208.90331 c 0.01687,47.19401 -0.0354,94.38811 0.02947,141.58208 0.08246,11.29417 -0.0079,22.59965 0.609835,33.88054 0.329996,3.68824 0.396792,7.64233 2.382067,10.89471 2.351918,3.20396 5.529697,5.82544 9.131782,7.51437 3.22186,1.3386 6.80142,1.16728 10.22137,1.38591 14.56554,0.37126 29.13876,0.26444 43.70799,0.3217 29.41616,0.0198 58.83232,0.02 88.24848,0.0297 3.5467,-1.81034 7.37475,-3.32519 10.17923,-6.26486 2.81464,-2.84463 4.98506,-6.50008 5.59422,-10.48839 0.38341,-8.65197 0.34854,-17.31794 0.46769,-25.97685 0.3811,-47.36959 0.21468,-94.74122 0.26679,-142.11181 7.3e-4,-4.48074 0.002,-8.96148 0.002,-13.44222 -56.94705,0 -113.89412,0 -170.84117,0 0,0.8917 0,1.78338 0,2.67507 z M 154.0782,348.093 c 14.64249,0.0432 29.28531,0.0851 43.92701,0.24818 -21.14536,0.0747 -42.29176,0.0345 -63.43618,-0.18809 6.5029,-0.0544 13.00608,-0.0572 19.50917,-0.0601 z" /><path
   id="path14"
   style="fill:url(#linearGradient15);stroke-width:1.75808"
   d="m 81.148664,205.21204 c -7.948975,0.69484 -15.975781,0.86181 -23.812764,2.48867 -3.795546,0.78176 -7.700649,1.68675 -10.886747,4.01467 -5.384375,3.71291 -9.888051,8.68469 -13.212664,14.30701 -1.69305,2.93214 -3.023187,6.20146 -2.945517,9.64305 -0.39932,12.49196 -0.382374,24.99381 -0.450026,37.49116 -0.132242,43.1526 0.288813,86.3042 0.487049,129.45598 0.04188,7.40888 0.08208,14.81777 0.125019,22.22663 3.295616,4.6448 6.146181,9.72344 10.509924,13.48845 4.404404,3.94126 9.75613,6.8415 15.45964,8.37447 5.367937,0.54528 10.777658,0.4985 16.166701,0.67854 32.045631,0.59128 64.097951,0.66689 96.147971,0.7986 59.84159,0.14025 119.68467,0.0964 179.52442,-0.4324 15.48825,-0.1902 30.98267,-0.2603 46.46132,-0.87088 2.21383,-0.0721 4.45496,-0.24093 6.51498,-1.12633 9.00712,-3.35676 16.51522,-10.48963 20.49758,-19.21983 2.29994,-5.1145 2.37618,-10.83941 2.73877,-16.33859 0.63145,-15.53037 0.56568,-31.07855 0.65257,-46.61889 0.043,-27.9965 0.0981,-55.99336 -0.0106,-83.98974 -0.12752,-13.18925 -0.0802,-26.39901 -1.08618,-39.55813 -0.59291,-5.96936 -1.19124,-12.27472 -4.54266,-17.4311 -2.03618,-3.03815 -4.69201,-5.59532 -7.21836,-8.21858 -3.02755,-3.1298 -7.11458,-5.02328 -11.35716,-5.82615 -7.34407,-1.45354 -14.86444,-1.58381 -22.32171,-1.87758 -19.75474,-0.51466 -39.51827,-0.51254 -59.27772,-0.71435 -20.98317,-0.16455 -41.96634,-0.32979 -62.94953,-0.49389 -0.0189,45.70076 0.0433,91.40166 -0.0447,137.10236 -0.0466,9.22477 -0.0967,18.57653 -0.34458,27.7199 -0.28379,7.1987 -0.38747,14.46009 -1.7931,21.54923 -0.57435,2.83003 -1.73244,5.79438 -4.29612,7.38715 -2.48103,1.61845 -4.9995,3.44172 -8.02281,3.82013 -4.38177,0.7271 -9.00592,0.79887 -13.32047,0.96919 -20.02208,0.45469 -40.0515,0.29961 -60.0772,0.34965 -17.1423,-0.0296 -34.28775,0.0796 -51.4266,-0.32875 -5.28431,-0.16671 -10.80408,-0.36242 -16.14183,-1.02144 -3.370133,-0.53943 -7.0877,-0.93105 -9.754942,-3.28178 -1.728415,-1.76202 -2.869518,-4.01869 -3.907752,-6.23247 -1.105284,-3.30872 -1.21975,-7.00204 -1.494279,-10.34499 -0.607561,-11.12112 -0.685231,-22.18489 -0.842512,-33.35258 -0.382802,-39.72691 -0.50211,-79.45581 -0.746772,-119.18373 -0.04669,-8.53983 -0.09343,-17.07966 -0.140106,-25.61949 -0.953515,0.0723 -1.907029,0.14455 -2.860543,0.21683 z" /><path
   id="path9"
   style="fill:url(#linearGradient10);stroke-width:1.75808"
   d="m 132.78739,7.2309463 c -9.31185,0.1458447 -18.66553,0.1319076 -27.91199,1.3745565 -4.76891,0.6844292 -9.799869,2.0281822 -13.176807,5.6961802 -2.061834,2.110495 -3.831538,4.642686 -4.313438,7.614151 -1.086679,5.853019 -1.034328,11.839378 -1.24614,17.768972 -0.404577,22.722661 -0.266236,45.450498 -0.309826,68.175684 -0.0041,32.63947 -6.29e-4,65.27895 -0.0018,97.91842 56.925291,0 113.850571,0 170.775871,0 -0.2421,-38.23678 -0.38568,-76.47428 -0.70369,-114.710521 -0.2355,-21.04716 -0.45609,-42.098974 -1.20435,-63.134778 -0.19934,-2.908373 -0.11593,-5.867278 -0.70172,-8.730162 -1.05069,-2.462773 -3.1584,-4.297936 -5.12286,-6.047644 -2.11021,-1.854477 -4.63928,-3.2433715 -7.42435,-3.7356908 C 235.299,8.2858991 229.01729,8.2773791 222.79005,8.0197166 202.31491,7.5051273 181.83076,7.4544214 161.35053,7.2657891 151.82958,7.2060281 142.30844,7.167788 132.78739,7.2309463 Z M 170.254,47.552887 c 15.22403,0 30.44805,0 45.67207,0 0,39.160292 0,78.320593 0,117.480893 -4.43874,0.43074 -8.93431,1.03687 -13.29475,1.20747 -16.53314,0.64465 -33.225,0.65589 -49.84617,0.58312 -8.8851,-0.10299 -17.78248,-0.0895 -26.65152,-0.6813 -0.58082,-0.23615 -0.31404,-1.3694 -0.5094,-1.95952 -0.45347,-4.24517 -0.54768,-8.46374 -0.68228,-12.6646 -0.46056,-20.38881 -0.32567,-40.78501 -0.36002,-61.177537 0,-14.262842 0,-28.525684 0,-42.788526 15.22402,0 30.44805,0 45.67207,0 z" /><path
   id="path2"
   d="m 234.80859,5.3496094 c -43.44343,0.00749 -86.88777,-0.013573 -130.33107,0.022022 -7.907863,0.2629715 -15.4316,5.1507276 -18.943675,12.2325736 -1.761995,3.379919 -2.48845,7.215502 -2.415708,11.008293 0.02679,21.772154 0.0024,43.545104 0.01077,65.31758 0.0025,97.006582 -0.0053,194.013392 0.01168,291.019842 0.163269,7.8132 4.841624,15.30617 11.740621,18.9559 3.714838,2.02046 7.995192,2.86038 12.203162,2.66256 43.21955,-0.003 86.43957,0.0142 129.65881,-0.0201 7.92787,-0.25079 15.47565,-5.1524 18.9898,-12.25437 1.8703,-3.65001 2.58361,-7.80411 2.39202,-11.88061 -0.003,-118.48121 0.007,-236.96258 -0.0121,-355.443685 -0.16433,-7.624096 -4.61655,-14.950831 -11.2525,-18.6874508 -3.64109,-2.0769193 -7.86604,-3.0851928 -12.05185,-2.9325347 z m 1.36329,4.3085937 c 6.98975,0.04553 13.65961,4.6332399 16.28256,11.1000799 1.3058,3.021961 1.48019,6.365017 1.37368,9.611248 0,57.785026 10e-6,115.570049 0,173.355079 -55.46744,0 -110.93489,0 -166.402339,0 0.0015,-58.89863 -0.01114,-117.79761 0.01747,-176.696012 0.15375,-7.250258 5.207276,-14.08669 12.088247,-16.374269 2.750652,-1.0291785 5.718772,-1.0616526 8.615772,-1.0059722 42.67487,-0.00398 85.34973,-1.183e-4 128.02461,0.00985 z M 90.101562,208.02344 c 54.575518,0 109.151038,0 163.726558,0 -0.002,58.95214 0.0124,117.90465 -0.0163,176.85657 -0.15023,7.01774 -4.8743,13.65281 -11.42603,16.15082 -2.99702,1.23157 -6.28539,1.32873 -9.47841,1.24069 -42.73375,-0.003 -85.46797,0.0145 -128.20143,-0.0205 -6.939439,-0.19541 -13.480609,-4.85279 -15.998298,-11.31369 -1.263831,-3.02577 -1.37634,-6.35531 -1.281911,-9.58654 0,-57.77578 0,-115.55156 0,-173.32734 0.891927,0 1.783854,0 2.675781,0 z" />
	
	<path
   id="path10"
   d="m 215.74219,302.99609 c -29.99397,0.009 -59.98895,-0.009 -89.98253,0.0154 -1.5955,0.11366 -2.53579,2.26928 -1.42568,3.47288 0.62399,0.84637 1.72085,0.87474 2.67071,0.81054 29.73728,-0.004 59.47543,0.01 89.21217,-0.0139 1.58641,-0.10869 2.52874,-2.23289 1.45111,-3.447 -0.46012,-0.56545 -1.1894,-0.92167 -1.92578,-0.83789 z" />
	<path
   id="path11"
   d="m 215.01367,346.01953 c -29.99525,0.009 -59.99157,-0.009 -89.98641,0.0156 -1.63132,0.11413 -2.54827,2.35315 -1.36606,3.53282 0.83473,1.04621 2.25932,0.69622 3.41497,0.75039 29.47062,-0.004 58.9421,0.01 88.41218,-0.0139 1.62663,-0.11154 2.56445,-2.33877 1.38231,-3.5273 -0.45908,-0.52297 -1.1558,-0.83956 -1.85699,-0.75766 z" />
	<path
   id="path12"
   d="m 215.74219,259.97656 c -29.99587,0.009 -59.99295,-0.01 -89.98831,0.0163 -1.62702,0.11475 -2.54948,2.35483 -1.364,3.53196 0.8082,1.01901 2.18843,0.71086 3.31481,0.75054 29.50394,-0.004 59.00878,0.01 88.51216,-0.0141 1.58578,-0.111 2.52829,-2.23627 1.45112,-3.45075 -0.46252,-0.56264 -1.18901,-0.92049 -1.92578,-0.83399 z" />
	<path
   id="path13"
   d="m 215.74023,45.349609 c -30.22899,0.0083 -60.45897,-0.0082 -90.68762,0.01511 -1.25977,0.09578 -2.13547,1.427876 -1.9237,2.636062 0.004,39.366229 -0.009,78.733169 0.0131,118.098949 0.0951,1.25959 1.42744,2.1319 2.63411,1.92355 6.64345,-0.0189 44.85917,0.0762 51.50156,3.5e-4 1.58355,-0.27502 -1.1899,-3.1599 -2.42617,-4.26187 0,0 -30.45938,0.0634 -31.67461,-0.0352 H 127.42573 V 49.648438 h 86.40234 c 1e-5,38.026041 0,76.052082 0,114.078122 -12.99189,0.0136 -25.98618,-0.0367 -38.97656,0.0352 -1.56369,0.26695 -2.33026,2.44789 -1.14304,3.56571 0.91137,1.0365 2.36898,0.61086 3.56921,0.69616 13.03342,-0.0134 26.06932,0.0355 39.10118,-0.0334 1.22819,-0.21919 1.95022,-1.53621 1.74609,-2.71601 -0.004,-39.3329 0.009,-78.666503 -0.0132,-117.998953 -0.0829,-1.13369 -1.25053,-2.058866 -2.37161,-1.925658 z"
   sodipodi:nodetypes="scccccccccccccccccss" />
<rect
   style="fill:none;fill-opacity:1;fill-rule:nonzero;stroke:#000000;stroke-width:4.28179;stroke-linecap:butt;stroke-linejoin:round;stroke-dasharray:none;stroke-opacity:1;paint-order:normal"
   id="rect14"
   width="395.94467"
   height="241.84554"
   x="29.239216"
   y="206.22748"
   ry="34.261166" /><path
   style="fill:url(#linearGradient2);fill-opacity:1;stroke-width:1.31442"
   d="m 715.04496,630.92203 v -42.06147 h 31.5461 31.54611 v 42.06147 42.06147 h -31.54611 -31.5461 z"
   id="path1"
   transform="matrix(1.3375335,0,0,1.3375335,-827.45717,-737.46956)" /></g></g></svg>
