<?xml version="1.0" encoding="UTF-8" standalone="no"?>
<!-- Uploaded to: SVG Repo, www.svgrepo.com, Generator: SVG Repo Mixer Tools -->

<svg
   fill="#000000"
   height="800"
   width="800"
   version="1.1"
   id="Capa_1"
   viewBox="0 0 465 465"
   xml:space="preserve"
   sodipodi:docname="1 Phone Thinner details 2.svg"
   inkscape:export-filename="draft7"
   inkscape:export-xdpi="96"
   inkscape:export-ydpi="96"
   inkscape:version="1.3.2 (091e20e, 2023-11-25)"
   xmlns:inkscape="http://www.inkscape.org/namespaces/inkscape"
   xmlns:sodipodi="http://sodipodi.sourceforge.net/DTD/sodipodi-0.dtd"
   xmlns="http://www.w3.org/2000/svg"
   xmlns:svg="http://www.w3.org/2000/svg"><defs
   id="defs6" /><sodipodi:namedview
   id="namedview6"
   pagecolor="#ffffff"
   bordercolor="#000000"
   borderopacity="0.25"
   inkscape:showpageshadow="2"
   inkscape:pageopacity="0.0"
   inkscape:pagecheckerboard="0"
   inkscape:deskcolor="#d1d1d1"
   inkscape:zoom="0.87649349"
   inkscape:cx="309.18655"
   inkscape:cy="450.65936"
   inkscape:window-width="1920"
   inkscape:window-height="999"
   inkscape:window-x="1997"
   inkscape:window-y="93"
   inkscape:window-maximized="0"
   inkscape:current-layer="Capa_1" />

<g
   id="g19"
   style="display:inline;opacity:1;mix-blend-mode:normal"
   inkscape:label="take 2">
	
	
	
	
	
	
<path
   id="path7"
   d="m 230.49184,0.01794744 c -44.5176,0.008437 -89.03599,-0.0239049 -133.553095,0.04264288 -4.057613,0.17703333 -8.036221,1.48369888 -11.460833,3.62024508 -0.739035,0.4581652 -1.688405,1.1243802 -2.446457,1.7475928 -5.32671,4.259873 -8.507979,10.8950758 -8.659308,17.6334158 0.02466,47.821991 0.0036,95.646046 0.01061,143.468826 0.0023,73.90061 0.0069,147.80144 0.02251,221.7019 0.152938,5.50289 2.477787,10.86445 6.214975,14.93223 0.456247,0.48329 1.146242,1.19154 1.749475,1.70618 1.725946,1.54395 3.914127,2.95427 6.148005,3.91765 3.671983,1.63592 7.749771,2.21618 11.756568,2.03683 44.69273,-0.003 89.38602,0.0343 134.07839,-0.0231 4.68491,-0.17023 9.27552,-1.82908 13.04491,-4.55853 0.8859,-0.64078 1.93255,-1.50172 2.77254,-2.35128 4.56063,-4.48252 7.13219,-10.83912 6.91858,-17.18598 0.0513,-12.48341 0.009,-24.96718 0.0243,-37.45075 -10e-4,-108.85785 0.005,-217.716 -0.0231,-326.573652 C 256.8865,14.43164 251.81309,6.5509961 244.39686,2.7456264 240.6586,0.77676831 236.39272,-0.10297537 232.16714,0.00962487 231.60875,7.78463e-4 231.05028,0.01634896 230.49187,0.01799172 Z M 98.652904,5.8251596 c 45.229666,0.041609 90.460026,-0.016254 135.689256,0.044151 8.17811,0.3515087 15.6355,6.9632854 16.63741,15.0029994 0.47531,3.589624 0.10596,7.216387 0.22564,10.822639 0,56.910809 0,113.821621 0,170.732421 -56.97158,0 -113.94316,0 -170.914749,0 7.25e-4,-59.97662 -0.0072,-119.953864 0.03215,-179.930132 C 80.639718,14.602175 87.064301,7.4050454 94.990663,6.1327324 96.19764,5.9136046 97.428328,5.8553112 98.652904,5.8251558 Z M 81.494258,208.24854 c 56.570312,0 113.140632,0 169.710952,0 -4.4e-4,60.03709 0.007,120.07479 -0.0343,180.11148 -0.32389,8.15307 -7.19086,15.57967 -15.46058,16.4634 -3.63957,0.42004 -7.30964,0.0758 -10.96272,0.19076 -42.55486,-0.008 -85.11048,0.023 -127.664869,-0.0387 -8.259022,-0.37624 -15.745557,-7.15924 -16.607635,-15.29422 -0.407767,-3.56276 -0.07154,-7.15325 -0.184634,-10.72824 0,-56.9015 0,-113.80301 0,-170.70453 0.401266,0 0.802532,0 1.203797,0 z"
   style="stroke-width:1.02808" /><path
   id="path8"
   d="m 390.20825,202.43535 c -36.53566,8.8e-4 -73.07344,-0.0184 -109.60777,0.0306 -2.01805,0.28284 -3.25516,2.96071 -1.89956,4.55952 0.74209,1.05271 2.12327,1.37409 3.35101,1.20542 29.98186,0.0354 59.96374,0.0135 89.94562,0.0177 0,27.12756 -10e-6,54.25512 0,81.38268 -19.03681,0.0108 -38.07493,-0.0504 -57.11086,0.0634 -4.47385,0.25297 -8.82576,1.87844 -12.44226,4.46635 -0.74847,0.54071 -1.69428,1.29531 -2.4406,2.00849 -0.79974,0.74408 -1.45493,1.46298 -2.1844,2.34792 -3.71413,4.55797 -5.48434,10.49671 -5.17741,16.30882 0.0151,13.78415 -0.0627,27.57053 0.083,41.35318 0.33862,4.85426 2.38717,9.52952 5.54971,13.24616 0.34942,0.40927 0.9372,1.05871 1.4243,1.52861 4.21288,4.22663 10.12822,6.64373 16.1183,6.83574 8.97255,0.0267 17.94777,-0.003 26.92137,0.006 9.75298,-10e-4 19.50595,-0.003 29.25893,-0.004 0,27.12757 -1e-5,54.25513 0,81.38269 -103.80987,-0.002 -207.62016,0.008 -311.429756,-0.0261 -12.607814,-0.35752 -24.723693,-7.72518 -30.714353,-18.65685 -3.381844,-6.01276 -4.870909,-12.97441 -4.549141,-19.82293 7.15e-4,-59.26613 -0.0075,-118.53273 0.03494,-177.79855 0.37352,-11.93115 7.250503,-23.48659 17.74151,-29.50268 2.782751,-1.63809 5.810134,-2.8232 8.866891,-3.8553 1.716411,-1.00282 1.913632,-3.84689 0.118153,-4.87933 -1.029286,-0.71416 -2.381867,-0.59054 -3.466772,-0.0802 -3.976048,1.24222 -7.780592,3.15203 -11.137397,5.45977 -3.262219,2.25977 -6.101758,4.84887 -8.636921,7.91359 -3.654895,4.42044 -6.438149,9.77321 -7.943004,15.36424 -1.218447,4.30303 -1.556395,8.78819 -1.479038,13.23944 0.0071,47.19593 -0.01747,94.39228 0.008,141.58836 0.01755,12.24449 -0.02126,24.48982 0.03157,36.73379 0.37318,9.72897 4.451931,19.48406 11.268012,26.6561 4.144591,4.39472 9.236799,7.91874 14.848165,10.2513 1.036795,0.41694 2.331841,0.91651 3.503599,1.27035 4.250371,1.34937 8.716199,1.96079 13.176801,1.94648 5.611582,0.063 11.223797,-0.0295 16.83571,0.0157 106.656491,-10e-4 213.313401,0.007 319.969631,-0.0278 11.89352,-0.28766 23.51796,-5.83873 31.14585,-14.82753 4.74911,-5.50409 8.0313,-12.23172 9.36578,-19.33827 0.21289,-1.14092 0.42629,-2.54208 0.53247,-3.79822 0.39764,-5.24662 0.10877,-10.51347 0.19588,-15.76894 -2.2e-4,-56.0923 0.006,-112.18501 -0.0343,-168.27706 -0.30938,-11.49957 -5.77615,-22.72294 -14.61723,-30.22581 -7.5066,-6.45387 -17.3608,-10.21074 -27.33552,-10.28714 -2.696,-0.0228 -5.39268,-0.0149 -8.08886,-0.005 z m 0.88008,5.80721 c 5.57083,0.0369 11.27587,-0.28371 16.66716,1.37537 10.53269,2.93534 19.56783,10.73773 23.74904,20.72229 2.26419,5.25909 3.12841,11.03255 2.87191,16.72179 -10e-4,59.20138 0.009,118.40338 -0.0362,177.60439 -0.4451,12.32957 -7.89129,24.14477 -18.90892,30.01266 -6.07614,3.32479 -13.11304,4.80048 -20.03936,4.49524 -5.82894,0 -11.65788,0 -17.48681,0 0,-83.64191 0,-167.28384 0,-250.92576 4.39437,-8.4e-4 8.78872,-0.004 13.18308,-0.006 z m -74.67177,87.20782 c 18.527,0 37.054,0 55.58099,0 0,25.50737 -10e-6,51.01472 0,76.52208 -19.00901,-0.0102 -38.01959,0.0479 -57.02757,-0.0607 -8.15714,-0.55438 -15.4439,-7.32801 -16.25225,-15.38201 -0.38436,-3.59552 -0.0601,-7.2141 -0.17037,-10.82007 0.014,-11.43311 -0.0596,-22.86915 0.0824,-34.30032 0.64839,-7.72376 7.09591,-14.58307 14.89835,-15.71283 0.95331,-0.16368 1.92187,-0.22642 2.88845,-0.24614 z"
   style="stroke-width:1.02808" /><path
   id="path16"
   d="m 212.46929,303.71082 c -4.16109,0.0446 -8.3296,-0.0127 -12.49359,0.0138 -27.02024,0.007 -54.04357,-0.0448 -81.06186,0.0472 -1.97183,0.38129 -3.11425,3.02466 -1.75096,4.58601 0.74887,1.02486 2.10691,1.32555 3.31737,1.16437 30.92164,0.0161 61.84519,0.0376 92.76563,-0.0182 2.00349,-0.30692 3.21416,-2.97584 1.86612,-4.56345 -0.60094,-0.80562 -1.62893,-1.28497 -2.64271,-1.22977 z"
   style="stroke-width:1.02808" /><path
   id="path17"
   d="m 211.53659,347.62761 c -31.07462,-0.003 -62.15109,-0.0217 -93.22641,0.0199 -2.01805,0.26647 -3.28012,2.91632 -1.95639,4.53274 0.73623,1.08006 2.13464,1.41046 3.37789,1.23891 30.33921,0.0359 60.67876,0.0301 91.01781,-0.009 1.06729,-0.0493 2.30395,0.18487 3.11958,-0.68175 1.22993,-1.01222 1.4559,-3.01849 0.26935,-4.15383 -0.65601,-0.69016 -1.6451,-1.06495 -2.60183,-0.94662 z"
   style="stroke-width:1.02808" /><path
   id="path18"
   d="m 212.21639,259.83388 c -31.04925,-0.007 -62.09981,-0.0183 -93.14954,0.0219 -2.05766,0.25271 -3.31236,3.01005 -1.90123,4.60658 0.73286,1.00159 2.0559,1.32411 3.24585,1.16505 30.63576,0.0324 61.27213,0.0283 91.90753,-0.0136 1.07484,0.10743 2.19157,-0.28111 2.78284,-1.21391 1.05188,-1.29078 0.59943,-3.34678 -0.86082,-4.13691 -0.59945,-0.36464 -1.32631,-0.51443 -2.02463,-0.42907 z"
   style="stroke-width:1.02808" /><path
   id="path19"
   d="m 212.34992,40.835832 c -31.34121,0.0121 -62.68536,-0.03536 -94.02497,0.02816 -1.7114,0.237711 -2.82188,2.073637 -2.49925,3.692921 -0.005,40.1156 -0.0202,80.231207 0.0202,120.346787 0.19974,1.71344 2.08673,2.84927 3.74938,2.5231 6.88013,-0.0149 13.76553,0.0845 20.64217,-0.0759 1.93121,-0.47359 2.95053,-3.1083 1.55971,-4.61633 -0.75732,-0.98374 -2.07678,-1.25112 -3.25835,-1.09921 -4.55467,-0.0838 -9.11799,0.083 -13.66746,-0.10162 -2.24729,-0.34625 -3.62185,-2.81106 -3.14605,-4.91481 0,-36.65599 0,-73.311961 0,-109.967944 29.34834,10e-7 58.69668,0 88.04502,0 0,38.321489 0,76.642984 0,114.964454 -13.29194,0.0126 -26.58719,-0.0538 -39.877,0.0658 -2.01145,0.42595 -3.07594,3.19806 -1.57607,4.70914 0.76566,0.92244 2.03418,1.17019 3.17964,1.01887 13.81165,0.0182 27.62505,0.0721 41.43563,-0.018 1.84451,0.002 3.06021,-1.99478 2.74146,-3.66933 0.009,-40.10244 0.004,-80.204884 -0.0162,-120.307327 -0.14753,-1.54061 -1.75721,-2.777298 -3.30791,-2.578769 z"
   style="stroke-width:1.02808" /></g></svg>
