<?xml version="1.0" encoding="UTF-8" standalone="no"?>
<!-- Uploaded to: SVG Repo, www.svgrepo.com, Generator: SVG Repo Mixer Tools -->

<svg
   fill="#000000"
   height="800"
   width="800"
   version="1.1"
   id="Capa_1"
   viewBox="0 0 465 465"
   xml:space="preserve"
   sodipodi:docname="1 Phone Thinner details 2.svg"
   inkscape:export-filename="draft7"
   inkscape:export-xdpi="96"
   inkscape:export-ydpi="96"
   inkscape:version="1.3.2 (091e20e, 2023-11-25)"
   xmlns:inkscape="http://www.inkscape.org/namespaces/inkscape"
   xmlns:sodipodi="http://sodipodi.sourceforge.net/DTD/sodipodi-0.dtd"
   xmlns:xlink="http://www.w3.org/1999/xlink"
   xmlns="http://www.w3.org/2000/svg"
   xmlns:svg="http://www.w3.org/2000/svg"><defs
   id="defs6"><linearGradient
     id="linearGradient9"
     inkscape:collect="always"
     inkscape:label="Phone"><stop
       style="stop-color:#9e9ea0;stop-opacity:1;"
       offset="0"
       id="stop9" /><stop
       style="stop-color:#1b1b1b;stop-opacity:1;"
       offset="1"
       id="stop10" /></linearGradient><linearGradient
     id="linearGradient14"
     inkscape:collect="always"
     inkscape:label="base"><stop
       style="stop-color:#5d5d5f;stop-opacity:1;"
       offset="0"
       id="stop14" /><stop
       style="stop-color:#38383a;stop-opacity:1;"
       offset="1"
       id="stop15" /></linearGradient><linearGradient
     inkscape:collect="always"
     xlink:href="#linearGradient9"
     id="linearGradient21"
     x1="78.714142"
     y1="103.83506"
     x2="253.00165"
     y2="103.83506"
     gradientUnits="userSpaceOnUse" /><linearGradient
     inkscape:collect="always"
     xlink:href="#linearGradient9"
     id="linearGradient23"
     x1="78.712967"
     y1="306.53903"
     x2="253.00002"
     y2="306.53903"
     gradientUnits="userSpaceOnUse" /><linearGradient
     inkscape:collect="always"
     xlink:href="#linearGradient14"
     id="linearGradient29"
     x1="19.087965"
     y1="331.81088"
     x2="443.21127"
     y2="331.81088"
     gradientUnits="userSpaceOnUse" /></defs><sodipodi:namedview
   id="namedview6"
   pagecolor="#ffffff"
   bordercolor="#000000"
   borderopacity="0.25"
   inkscape:showpageshadow="2"
   inkscape:pageopacity="0.0"
   inkscape:pagecheckerboard="0"
   inkscape:deskcolor="#d1d1d1"
   inkscape:zoom="0.69918494"
   inkscape:cx="197.37267"
   inkscape:cy="523.46665"
   inkscape:window-width="1920"
   inkscape:window-height="971"
   inkscape:window-x="0"
   inkscape:window-y="89"
   inkscape:window-maximized="0"
   inkscape:current-layer="g19" />

<g
   id="g19"
   style="display:inline;opacity:1;mix-blend-mode:normal"
   inkscape:label="take 2">
	
	
	
	
	
	
<rect
   style="display:inline;opacity:1;mix-blend-mode:normal;fill:url(#linearGradient29);fill-opacity:1;stroke:#141416;stroke-width:5.8125;stroke-dasharray:none"
   id="rect23"
   width="418.31079"
   height="259.14603"
   x="21.994215"
   y="202.23787"
   ry="36.981724"
   rx="47.924225" /><path
   id="path7"
   d="m 230.49184,0.01794744 c -44.5176,0.008437 -89.03599,-0.0239049 -133.553095,0.04264288 -4.057613,0.17703333 -8.036221,1.48369888 -11.460833,3.62024508 -0.739035,0.4581652 -1.688405,1.1243802 -2.446457,1.7475928 -5.32671,4.259873 -8.507979,10.8950758 -8.659308,17.6334158 0.02466,47.821991 0.0036,95.646046 0.01061,143.468826 0.0023,73.90061 0.0069,147.80144 0.02251,221.7019 0.152938,5.50289 2.477787,10.86445 6.214975,14.93223 0.456247,0.48329 1.146242,1.19154 1.749475,1.70618 1.725946,1.54395 3.914127,2.95427 6.148005,3.91765 3.671983,1.63592 7.749771,2.21618 11.756568,2.03683 44.69273,-0.003 89.38602,0.0343 134.07839,-0.0231 4.68491,-0.17023 9.27552,-1.82908 13.04491,-4.55853 0.8859,-0.64078 1.93255,-1.50172 2.77254,-2.35128 4.56063,-4.48252 7.13219,-10.83912 6.91858,-17.18598 0.0513,-12.48341 0.009,-24.96718 0.0243,-37.45075 -10e-4,-108.85785 0.005,-217.716 -0.0231,-326.573652 C 256.8865,14.43164 251.81309,6.5509961 244.39686,2.7456264 240.6586,0.77676831 236.39272,-0.10297537 232.16714,0.00962487 231.60875,7.78463e-4 231.05028,0.01634896 230.49187,0.01799172 Z M 98.652904,5.8251596 c 45.229666,0.041609 90.460026,-0.016254 135.689256,0.044151 8.17811,0.3515087 15.6355,6.9632854 16.63741,15.0029994 0.47531,3.589624 0.10596,7.216387 0.22564,10.822639 V 202.42737 L 80.290461,201.56135 C 80.291186,141.58473 80.283261,82.473506 80.322611,22.497238 80.639718,14.602175 87.064301,7.4050454 94.990663,6.1327324 96.19764,5.9136046 97.428328,5.8553112 98.652904,5.8251558 Z M 81.494258,208.24854 H 251.20521 c -4.4e-4,60.03709 0.007,120.07479 -0.0343,180.11148 -0.32389,8.15307 -7.19086,15.57967 -15.46058,16.4634 -3.63957,0.42004 -7.30964,0.0758 -10.96272,0.19076 -42.55486,-0.008 -85.11048,0.023 -127.664869,-0.0387 -8.259022,-0.37624 -15.745557,-7.15924 -16.607635,-15.29422 -0.407767,-3.56276 -0.07154,-7.15325 -0.184634,-10.72824 V 208.24849 h 1.203797 z"
   style="display:inline;stroke-width:1.02808"
   sodipodi:nodetypes="sccccccccccccccccccssscccccccssccccccccccc" /><path
   id="path20"
   style="display:inline;fill:url(#linearGradient21);stroke:#141416;stroke-width:1.92273"
   d="m 154.24695,5.1120484 c -14.26879,0.022868 -28.53869,-0.00488 -42.80604,0.2272629 -4.96264,0.1165547 -9.93637,0.1811621 -14.876941,0.7019001 -2.340897,0.2562848 -4.713641,0.7133652 -6.783943,1.889309 -2.076335,1.0808634 -4.333684,2.0936836 -5.755311,4.0407566 -1.67636,2.259538 -2.264189,5.090988 -2.72705,7.809872 -0.818278,5.372426 -1.004261,10.814747 -1.205879,16.237663 -0.372756,12.744097 -0.366745,25.495207 -0.40326,38.243589 -0.02384,31.535749 -0.005,63.071539 -0.01218,94.607299 -2.61e-4,11.23008 0.09544,19.23183 0.09523,30.46192 H 253.00092 c -0.007,-41.43904 -0.94507,-79.64976 -0.98117,-121.088779 -0.0315,-13.684537 -0.0326,-27.370159 -0.27382,-41.052997 -0.12125,-5.08274 -0.19835,-10.175405 -0.71097,-15.237224 -0.26673,-2.463349 -0.7171,-4.999098 -2.10278,-7.106395 -1.55919,-2.415027 -3.61706,-4.502581 -5.94812,-6.1779205 -1.7957,-1.310749 -3.93824,-2.0621826 -6.12477,-2.3892462 C 232.74676,5.6582805 228.57795,5.5788535 224.42831,5.4333252 213.01811,5.1559853 201.6035,5.1636073 190.19066,5.1267031 178.20944,5.1051371 166.22816,5.1101561 154.24692,5.1120481 Z m 11.61024,36.4688966 h 48.31527 V 166.09673 c -32.44972,0.23852 -64.89943,0.47655 -97.34916,0.71407 0.23696,-41.74328 0.47385,-83.486566 0.71067,-125.229855 z"
   sodipodi:nodetypes="ccccccccccccccccccccccccccc" /><path
   id="path16"
   style="stroke-width:1.02808"
   d="m 209.34961,302.56641 c -30.19723,-0.004 -60.39461,-0.0414 -90.5918,0.043 -2.63907,0.43871 -4.2831,3.82466 -2.77929,6.10156 0.9419,1.57636 2.89982,2.21407 4.65273,1.9727 30.91589,0.0139 61.83179,0.0368 92.74766,-0.0176 2.71335,-0.35143 4.43568,-3.84158 2.86835,-6.14376 -0.91897,-1.46443 -2.70168,-2.15232 -4.38436,-1.97004 -0.83776,0.005 -1.67553,0.009 -2.51329,0.0142 z" /><path
   id="path17"
   style="display:inline;stroke-width:1.02808"
   d="m 211.82031,346.44531 c -13.965,0.0439 -27.93276,0.003 -41.89883,0.0143 -17.24336,-0.002 -34.48672,0.008 -51.73007,0.0267 -2.71946,0.2965 -4.50801,3.75422 -2.98551,6.0864 0.9301,1.60161 2.90888,2.25574 4.67535,2.00938 30.72637,0.0305 61.45321,0.0307 92.1793,-0.0216 2.34979,0.10846 4.28751,-2.2416 3.99804,-4.51758 -0.15471,-1.75977 -1.66396,-3.19447 -3.35937,-3.51563 -0.14293,-0.12996 -0.62954,-0.0372 -0.87891,-0.082 z" /><path
   id="path18"
   d="m 212.21639,259.83388 c -31.04925,-0.007 -62.09981,-0.0183 -93.14954,0.0219 -2.05766,0.25271 -3.31236,3.01005 -1.90123,4.60658 0.73286,1.00159 2.0559,1.32411 3.24585,1.16505 30.63576,0.0324 61.27213,0.0283 91.90753,-0.0136 1.07484,0.10743 2.19157,-0.28111 2.78284,-1.21391 1.05188,-1.29078 0.59943,-3.34678 -0.86082,-4.13691 -0.59945,-0.36464 -1.32631,-0.51443 -2.02463,-0.42907 z"
   style="display:inline;stroke-width:1.02808"
   inkscape:label="path18" /><path
   id="path19"
   d="m 212.34992,40.835832 c -31.34121,0.0121 -65.29257,-0.28329 -96.63218,-0.21977 0.21093,35.87077 0.0931,84.140808 0.12816,124.287638 0.19974,1.71344 2.08673,2.84927 3.74938,2.5231 6.88013,-0.0149 13.76553,0.0845 20.64217,-0.0759 1.93121,-0.47359 62.53504,-0.23676 40.03838,-0.59617 -0.75732,-0.98374 -40.55545,-5.27128 -41.73702,-5.11937 -5.14331,-0.0946 -4.00663,0.26587 -16.82712,0.0285 l 0.0136,-115.012858 h 88.04502 V 161.61544 c -13.29194,0.0126 -26.58719,-0.0538 -39.877,0.0658 -2.01145,0.42595 -41.69819,-0.10421 -31.44011,0.11467 0.76566,0.92244 -20.0767,5.90824 -18.93124,5.75692 13.81165,0.0182 79.59997,-0.0715 93.41055,-0.16158 1.84451,0.002 3.06021,-1.99478 2.74146,-3.66933 0.009,-40.10244 0.004,-80.204884 -0.0162,-120.307327 -0.14753,-1.54061 -1.75721,-2.777298 -3.30791,-2.578769 z"
   style="display:inline;stroke-width:1.02808"
   sodipodi:nodetypes="ccccccccccccccccccc" /><path
   id="path21"
   style="display:inline;opacity:1;mix-blend-mode:normal;fill:url(#linearGradient23);stroke:#141416;stroke-width:1.92278;stroke-dasharray:none"
   d="m 79.673828,274.29688 c 0.01465,25.90193 -0.02921,51.80404 0.06273,77.70584 0.06675,10.1681 0.135168,20.34354 0.70851,30.49776 0.33006,4.56922 0.599821,9.23267 2.130924,13.5889 0.818527,2.22682 2.404635,4.17159 4.536904,5.25188 1.870221,1.01896 3.794067,1.95812 5.771019,2.74999 3.145695,1.12579 6.531144,1.25332 9.777325,1.42905 11.5502,0.4917 23.11498,0.31744 34.67233,0.32524 24.25299,-0.088 48.50625,-0.19065 72.75828,-0.42471 7.77963,-0.11122 15.5813,-0.13815 23.30892,-0.65992 3.25089,-0.26821 6.79212,-0.44825 9.44477,-2.59136 2.3989,-1.67274 4.94648,-3.50643 6.04118,-6.34143 1.35244,-3.11105 1.70221,-6.54018 2.04258,-9.82175 0.39767,-4.15142 0.56728,-8.17527 0.70404,-12.35397 0.4437,-16.90504 0.35909,-33.81806 0.40119,-50.7274 -0.006,-38.57331 -0.39126,-78.92329 -0.39026,-117.4966 L 79.505145,204.44024 c -6.51e-4,22.36393 0.169802,47.4927 0.169102,69.85664 z"
   sodipodi:nodetypes="ccccccccccccccccccc" /><path
   id="path24"
   style="display:inline;stroke-width:1.02808"
   d="m 212.7631,301.81989 c -13.965,0.0439 -27.93276,0.003 -41.89883,0.0143 -17.24336,-0.002 -34.48672,0.008 -51.73007,0.0267 -2.71946,0.2965 -4.50801,3.75422 -2.98551,6.0864 0.9301,1.60161 2.90888,2.25574 4.67535,2.00938 30.72637,0.0305 61.45321,0.0307 92.1793,-0.0216 2.34979,0.10846 4.28751,-2.2416 3.99804,-4.51758 -0.15471,-1.75977 -1.66396,-3.19447 -3.35937,-3.51563 -0.14293,-0.12996 -0.62954,-0.0372 -0.87891,-0.082 z"
   inkscape:label="middle phone line" /><path
   id="path25"
   style="display:inline;stroke-width:1.02808"
   d="m 212.44884,258.13727 c -13.965,0.0439 -27.93276,0.003 -41.89883,0.0143 -17.24336,-0.002 -34.48672,0.008 -51.73007,0.0267 -2.71946,0.2965 -4.50801,3.75422 -2.98551,6.0864 0.9301,1.60161 2.90888,2.25574 4.67535,2.00938 30.72637,0.0305 61.45321,0.0307 92.1793,-0.0216 2.34979,0.10846 4.28751,-2.2416 3.99804,-4.51758 -0.15471,-1.75977 -1.66396,-3.19447 -3.35937,-3.51563 -0.14293,-0.12996 -0.62954,-0.0372 -0.87891,-0.082 z"
   inkscape:label="upper phone line" /><path
   id="path26"
   style="display:inline;stroke-width:1.02808"
   d="m 212.57741,344.62807 c -13.965,0.0439 -27.93276,0.003 -41.89883,0.0143 -17.24336,-0.002 -34.48672,0.008 -51.73007,0.0267 -2.71946,0.2965 -4.50801,3.75422 -2.98551,6.0864 0.9301,1.60161 2.90888,2.25574 4.67535,2.00938 30.72637,0.0305 61.45321,0.0307 92.1793,-0.0216 2.34979,0.10846 4.28751,-2.2416 3.99804,-4.51758 -0.15471,-1.75977 -1.66396,-3.19447 -3.35937,-3.51563 -0.14293,-0.12996 -0.62954,-0.0372 -0.87891,-0.082 z"
   inkscape:label="upper phone line" /><path
   style="fill:#f2f4f1;fill-opacity:1;stroke:none;stroke-width:17.5609;stroke-dasharray:none"
   d="m 226.09636,277.16247 -16.24382,-0.71037 v -97.397 -97.396998 h 75.5118 75.51179 V 179.121 276.58389 l -26.78035,0.005 c -14.72919,0.003 -41.39978,0.29274 -59.26797,0.64449 -17.8682,0.35173 -39.79735,0.31984 -48.73145,-0.0709 z"
   id="path28"
   transform="scale(0.58125)"
   inkscape:label="path28" /><path
   style="fill:none;stroke:#000000;stroke-width:4.06875;stroke-dasharray:none;stroke-opacity:1"
   d="m 370.68938,203.47332 c -1.93571,260.81683 -3.15818,256.68814 -3.15818,256.68814"
   id="path22"
   sodipodi:nodetypes="cc" /><rect
   style="fill:none;stroke:#000000;stroke-width:4.26556;stroke-dasharray:none;stroke-opacity:1"
   id="rect22"
   width="71.075996"
   height="77.696518"
   x="297.8414"
   y="292.83875"
   rx="7.8235478"
   ry="9.2213831" /><path
   style="fill:none;stroke:#000000;stroke-width:4.06875;stroke-dasharray:none;stroke-opacity:1"
   d="m 440.80806,240.29431 c -0.3631,0 -71.67786,0 -71.67786,0 z"
   id="path27" /><path
   style="fill:none;stroke:#000000;stroke-width:4.06875;stroke-dasharray:none;stroke-opacity:1"
   d="m 440.80806,351.84964 c -0.3631,0 -71.67786,0 -71.67786,0 z"
   id="path23" /><path
   style="fill:none;stroke:#000000;stroke-width:4.06875;stroke-dasharray:none;stroke-opacity:1"
   d="m 440.80806,277.74512 c -0.3631,0 -71.67786,0 -71.67786,0 z"
   id="path29" /><path
   style="fill:none;stroke:#000000;stroke-width:4.06875;stroke-dasharray:none;stroke-opacity:1"
   d="m 440.80808,314.30424 c -0.3631,0 -71.67786,0 -71.67786,0 z"
   id="path30" /><path
   style="fill:none;stroke:#000000;stroke-width:4.06875;stroke-dasharray:none;stroke-opacity:1"
   d="m 440.80806,389.39504 c -0.3631,0 -71.67786,0 -71.67786,0 z"
   id="path31" /><path
   style="fill:none;stroke:#000000;stroke-width:4.06875;stroke-dasharray:none;stroke-opacity:1"
   d="m 440.80806,426.94044 c -0.3631,0 -71.67786,0 -71.67786,0 z"
   id="path32" /></g></svg>
