<?xml version="1.0" encoding="UTF-8" standalone="no"?>
<!-- Created with Inkscape (http://www.inkscape.org/) -->

<svg
   width="799.82031"
   height="799.93628"
   viewBox="0 0 211.61912 211.6498"
   version="1.1"
   id="svg12"
   xml:space="preserve"
   inkscape:version="1.3.2 (091e20e, 2023-11-25)"
   sodipodi:docname="draft5.svg"
   xmlns:inkscape="http://www.inkscape.org/namespaces/inkscape"
   xmlns:sodipodi="http://sodipodi.sourceforge.net/DTD/sodipodi-0.dtd"
   xmlns:xlink="http://www.w3.org/1999/xlink"
   xmlns="http://www.w3.org/2000/svg"
   xmlns:svg="http://www.w3.org/2000/svg"><sodipodi:namedview
     id="namedview14"
     pagecolor="#ffffff"
     bordercolor="#000000"
     borderopacity="0.25"
     inkscape:showpageshadow="2"
     inkscape:pageopacity="0.0"
     inkscape:pagecheckerboard="0"
     inkscape:deskcolor="#d1d1d1"
     inkscape:document-units="mm"
     showgrid="false"
     inkscape:zoom="1.4963145"
     inkscape:cx="340.50329"
     inkscape:cy="686.35305"
     inkscape:window-width="2048"
     inkscape:window-height="1099"
     inkscape:window-x="-40"
     inkscape:window-y="87"
     inkscape:window-maximized="0"
     inkscape:current-layer="g13" /><defs
     id="defs9"><linearGradient
       id="linearGradient14"
       inkscape:collect="always"><stop
         style="stop-color:#5d5d5f;stop-opacity:1;"
         offset="0"
         id="stop14" /><stop
         style="stop-color:#38383a;stop-opacity:1;"
         offset="1"
         id="stop15" /></linearGradient><linearGradient
       id="linearGradient9"
       inkscape:collect="always"><stop
         style="stop-color:#9e9ea0;stop-opacity:1;"
         offset="0"
         id="stop9" /><stop
         style="stop-color:#1b1b1b;stop-opacity:1;"
         offset="1"
         id="stop10" /></linearGradient><linearGradient
       id="linearGradient1"
       inkscape:collect="always"><stop
         style="stop-color:#f8faf9;stop-opacity:1;"
         offset="0"
         id="stop1" /><stop
         style="stop-color:#e8ebe4;stop-opacity:1;"
         offset="1"
         id="stop2" /></linearGradient><linearGradient
       inkscape:collect="always"
       xlink:href="#linearGradient1"
       id="linearGradient2"
       x1="715.04498"
       y1="630.92206"
       x2="778.13715"
       y2="630.92206"
       gradientUnits="userSpaceOnUse"
       gradientTransform="matrix(3.6098247,0,0,3.1714563,-2982.7962,-1727.0358)" /><linearGradient
       inkscape:collect="always"
       xlink:href="#linearGradient9"
       id="linearGradient10"
       x1="684.81329"
       y1="630.97913"
       x2="808.48077"
       y2="630.97913"
       gradientUnits="userSpaceOnUse"
       gradientTransform="matrix(3.6098247,0,0,3.1714563,-2982.7962,-1727.0358)" /><linearGradient
       inkscape:collect="always"
       xlink:href="#linearGradient14"
       id="linearGradient15"
       x1="642.93091"
       y1="795.64258"
       x2="934.52808"
       y2="795.64258"
       gradientUnits="userSpaceOnUse"
       gradientTransform="matrix(3.7037979,0,0,3.3594914,-3043.0267,-1859.5309)" /><linearGradient
       inkscape:collect="always"
       xlink:href="#linearGradient9"
       id="linearGradient17"
       x1="684.11499"
       y1="779.67322"
       x2="808.70264"
       y2="779.67322"
       gradientUnits="userSpaceOnUse"
       gradientTransform="matrix(3.6098247,0,0,3.1714563,-2982.7962,-1727.0358)" /></defs><g
     inkscape:label="trying to remove black"
     inkscape:groupmode="layer"
     id="g14"
     style="display:inline;opacity:1"
     transform="translate(-33.063819,-152.65602)"><g
       id="g13"
       transform="matrix(0.19781436,0,0,0.19781436,163.68291,145.88207)"
       style="display:inline;opacity:1">
	<path
   id="path15"
   style="fill:url(#linearGradient17);stroke:#141416;stroke-width:2.90215;stroke-dasharray:none;stroke-opacity:1"
   d="m -518.92843,516.93048 c 0.0457,111.90278 -0.0954,223.80578 0.0797,335.7085 0.22273,26.77984 -0.0209,53.58652 1.64585,80.33491 0.89064,8.74526 1.07088,18.1209 6.4289,25.83269 6.34752,7.59698 14.92391,13.81284 24.64544,17.8175 8.69539,3.17397 18.35614,2.76776 27.58613,3.28616 39.31045,0.88031 78.64164,0.62701 117.96203,0.76278 79.39031,0.047 158.78059,0.0475 238.1709,0.0705 9.572052,-4.29255 19.903458,-7.88445 27.472389,-14.85475 7.596326,-6.74499 13.454008,-15.4125 15.098046,-24.86928 1.034759,-20.51488 0.94065,-41.06294 1.262243,-61.5943 1.028537,-112.31909 0.579374,-224.64305 0.720015,-336.96454 0.002,-10.62438 0.0052,-21.24878 0.0052,-31.87315 -153.692523,0 -307.385063,0 -461.077553,0 0,2.11433 0,4.22862 0,6.34292 z m 185.16568,330.03583 c 39.51812,0.10242 79.03714,0.20181 118.55314,0.58847 -57.0685,0.17713 -114.13983,0.0817 -171.2058,-0.44599 17.55046,-0.12895 35.10168,-0.1357 52.65266,-0.14245 z"
   inkscape:export-filename="draft2.svg"
   inkscape:export-xdpi="96"
   inkscape:export-ydpi="96" /><path
   id="path14"
   style="display:inline;fill:url(#linearGradient15);stroke-width:4.63655"
   d="m -526.98328,508.20852 c -22.01171,1.74521 -44.23894,2.16458 -65.94053,6.25079 -10.51032,1.96357 -16.6038,7.30472 -25.4265,13.15178 -14.91004,9.32575 -17.11683,16.46179 -26.32308,30.58342 -4.68826,7.36468 -8.3716,15.57624 -8.15654,24.2205 -1.10573,31.37614 -1.0588,62.77714 -1.24616,94.1668 -0.36619,108.38668 0.79975,216.77082 1.34872,325.15539 0.11607,18.609 3.57344,37.2179 7.0387,48.8745 9.12594,11.6663 4.74978,12.5656 16.83353,22.0223 12.19634,9.8993 17.60836,15.4945 33.40206,19.3449 14.8645,1.3696 29.8447,1.2521 44.76765,1.7043 88.73835,1.4851 177.49526,1.675 266.24577,2.0058 165.70888,0.3523 331.421854,0.2421 497.1256,-1.086 42.88892,-0.4777 65.72678,4.8888 108.58911,3.3552 6.13036,-0.1811 39.28225,-11.5814 44.98669,-13.8052 12.67222,-9.4244 18.22368,-18.8627 28.13593,-25.8926 4.13797,-21.7848 8.81079,-22.2594 9.81483,-36.0718 1.74858,-39.0077 1.56642,-78.06015 1.80706,-117.09294 0.11894,-70.31897 0.27163,-140.63888 -0.0295,-210.95756 -0.35312,-33.12751 -0.22221,-66.30658 -3.00779,-99.3584 -1.64182,-14.99327 -3.29869,-30.83048 -12.57918,-43.78182 -3.88061,-22.23934 -13.66427,-17.83217 -31.92196,-34.40881 -20.33665,-3.65086 -41.16148,-3.97804 -61.81162,-4.71591 -54.70333,-1.29266 -109.43104,-1.28735 -164.14741,-1.79423 -58.105046,-0.4133 -131.4783944,-0.14455 -189.583488,-0.55678 -0.05228,114.78688 2.725512,227.87905 2.481821,342.66579 -0.129139,23.1699 -1.418882,45.64742 -2.105332,68.61288 -3.664645,22.20685 4.134435,28.73526 -18.252436,45.08788 -6.870299,4.06505 -6.054501,12.58047 -14.42642,13.53091 -58.188145,-0.72405 -332.632835,-1.94827 -400.564275,-1.55068 -3.06068,-8.31051 -23.58523,-14.33347 -24.34542,-22.72997 -1.68241,-27.933 -1.89748,-55.72194 -2.33302,-83.77189 -1.06004,-99.78236 -1.39042,-199.56968 -2.0679,-299.35453 -0.1294,-21.44956 -0.2588,-42.8991 -0.38797,-64.34865 -2.64042,0.18156 -5.28081,0.36307 -7.92121,0.54463 z"
   sodipodi:nodetypes="scccccccccccccccccccccccccccccccccss" /><path
   id="path9"
   style="fill:url(#linearGradient10);stroke-width:4.4474"
   d="m -391.22382,38.740568 c -25.13145,0.345812 -50.37576,0.312766 -75.33075,3.25924 -12.87063,1.622865 -26.44853,4.809069 -35.56245,13.506342 -5.5646,5.004242 -10.34079,11.008377 -11.64138,18.054085 -2.93279,13.878228 -2.79152,28.072615 -3.36315,42.132415 -1.09191,53.87822 -0.71856,107.7687 -0.83619,161.65289 -0.0105,77.39219 -0.002,154.78442 -0.005,232.17661 153.63375,0 307.2675,0 460.901306,0 -0.653406,-90.66412 -1.040902,-181.32991 -1.899179,-271.99273 -0.635578,-49.90539 -1.230925,-99.82182 -3.250382,-149.700297 -0.537992,-6.896107 -0.312861,-13.912035 -1.893846,-20.700284 -2.835673,-5.839538 -8.524088,-10.190933 -13.825897,-14.339706 -5.695187,-4.397194 -12.520809,-7.690433 -20.037352,-8.857781 -16.5907,-2.689364 -33.54422,-2.709566 -50.35069,-3.320514 -55.25967,-1.220155 -110.54368,-1.340384 -165.81707,-1.787656 -25.69579,-0.14171 -51.39207,-0.232373 -77.08811,-0.08261 z m 101.11739,95.608272 c 41.08763,0 82.17522,0 123.26282,0 0,92.85385 0,185.70771 0,278.5616 -11.97957,1.02132 -24.11249,2.45855 -35.88074,2.86306 -44.62076,1.52854 -89.66985,1.55519 -134.52819,1.38264 -23.9797,-0.24419 -47.99254,-0.21228 -71.9289,-1.61543 -1.56755,-0.55995 -0.84753,-3.24703 -1.3748,-4.64628 -1.22385,-10.06582 -1.4781,-20.06856 -1.84139,-30.02931 -1.24297,-48.34436 -0.87892,-96.70628 -0.97162,-145.05944 0,-33.81893 0,-67.6379 0,-101.45684 41.08758,0 82.17521,0 123.26282,0 z" /><path
   id="path2"
   d="m -115.8822,34.279685 c -117.24803,0.01769 -234.49852,-0.03217 -351.74618,0.05221 -21.34226,0.623536 -41.64782,12.213006 -51.12644,29.004934 -4.7554,8.014202 -6.71599,17.108839 -6.51969,26.102013 0.0724,51.624448 0.005,103.250778 0.0293,154.875998 0.008,230.01451 -0.0131,460.02956 0.0316,690.04375 0.44064,18.52605 13.06688,36.29281 31.68637,44.94678 10.02586,4.79075 21.57794,6.78229 32.9347,6.31324 116.64382,-0.007 242.23481,-3.11014 359.77238,-3.19146 21.396267,-0.59466 31.926192,-9.07316 41.410405,-25.91281 5.047687,-8.65461 6.972826,-18.5045 6.455747,-28.17038 -0.0078,-280.93348 0.0183,-561.86736 -0.03268,-842.800596 -0.443517,-18.077667 -12.459455,-35.450255 -30.368994,-44.310238 -9.826823,-4.924632 -21.229398,-7.31537 -32.526348,-6.953399 z m 3.67934,10.216203 c 18.864408,0.107958 36.865468,10.985982 43.944454,26.319652 3.524187,7.165442 3.994839,15.092237 3.707387,22.78945 0,137.01537 2.6e-5,274.03075 0,411.04615 H -513.64876 c 0.003,-139.65588 -0.0301,-279.31258 0.0473,-418.967913 0.41494,-17.191251 14.05374,-33.401271 32.62456,-38.825401 7.42363,-2.440309 15.4342,-2.517309 23.25283,-2.385282 115.17378,-0.0095 230.34754,-2.82e-4 345.52135,0.02328 z M -506.42717,514.84419 h 441.876151 c -0.0052,139.78277 0.03346,279.56639 -0.04392,419.34864 -0.405454,16.63993 -13.15508,32.37248 -30.837318,38.29558 -8.088573,2.9202 -16.963453,3.15057 -25.580963,2.94183 -115.3327,-0.007 -230.66668,0.0344 -345.99859,-0.0487 -18.72863,-0.46335 -36.38237,-11.50657 -43.17728,-26.82616 -3.41089,-7.17447 -3.71455,-15.06921 -3.4597,-22.73086 v -410.9803 h 7.22156 z"
   sodipodi:nodetypes="sccccccccccccssscccccccssccccccccccc"
   style="display:inline;stroke-width:2.52969" />
	
	<path
   id="path10"
   d="m -167.33988,740.036 c -80.94972,0.021 -161.90217,-0.0209 -242.85085,0.0365 -4.30603,0.2695 -6.84374,5.38075 -3.84772,8.23463 1.68406,2.00684 4.64435,2.07411 7.20789,1.92188 80.25695,-0.009 160.51626,0.0237 240.77177,-0.0331 4.28151,-0.2577 6.82471,-5.29444 3.91634,-8.17325 -1.2418,-1.34075 -3.21002,-2.1854 -5.19743,-1.98675 z"
   style="stroke-width:2.52969" />
	<path
   id="path11"
   d="m -169.30606,842.04987 c -80.95318,0.0209 -161.90923,-0.021 -242.86131,0.037 -4.40273,0.27061 -6.87744,5.5796 -3.68681,8.37676 2.25282,2.48068 6.0976,1.65082 9.21655,1.77926 79.53727,-0.009 159.07685,0.0237 238.61269,-0.0331 4.39005,-0.26447 6.92109,-5.5455 3.73065,-8.36365 -1.23897,-1.24003 -3.11933,-1.99071 -5.01177,-1.79651 z"
   style="stroke-width:2.52969" />
	<path
   id="path12"
   d="m -167.33988,638.03142 c -80.95485,0.0209 -161.91297,-0.0238 -242.86643,0.0386 -4.39112,0.27208 -6.88073,5.58358 -3.68128,8.37471 2.18122,2.41618 5.90628,1.68552 8.94625,1.77961 79.6272,-0.009 159.25681,0.0237 238.88253,-0.0335 4.27981,-0.26319 6.8235,-5.30247 3.91636,-8.18217 -1.24828,-1.33409 -3.20897,-2.18257 -5.19743,-1.97748 z"
   style="stroke-width:2.52969" />
	<path
   id="path13"
   d="m -167.34516,129.12459 c -81.58402,0.0198 -163.17069,-0.0196 -244.7538,0.0358 -3.39996,0.22711 -5.76334,3.38566 -5.1918,6.25042 0.0104,93.34216 -0.0235,186.686 0.0353,280.0271 0.25671,2.98663 3.85247,5.05499 7.10912,4.56096 17.92978,-0.0447 121.06893,0.18063 138.99585,8.4e-4 4.2738,-0.6521 -3.21138,-7.49252 -6.54792,-10.10542 0,0 -82.2058,0.15037 -85.48554,-0.0836 h -42.51031 V 139.31764 h 233.18839 c 3e-5,90.16439 0,180.3288 0,270.49321 -35.06338,0.0324 -70.13324,-0.0871 -105.19254,0.0836 -4.22018,0.63297 -6.28907,5.80425 -3.08491,8.45474 2.45966,2.45767 6.39356,1.44843 9.63283,1.65068 35.17545,-0.0317 70.35761,0.0843 105.52888,-0.0791 3.31471,-0.51973 5.26338,-3.64255 4.71245,-6.44001 -0.0105,-93.26312 0.0235,-186.52791 -0.0356,-279.78998 -0.22378,-2.68811 -3.375,-4.88182 -6.40065,-4.56597 z"
   sodipodi:nodetypes="scccccccccccccccccss"
   style="stroke-width:2.52969" />
<rect
   style="display:inline;fill:none;fill-opacity:1;fill-rule:nonzero;stroke:#000000;stroke-width:11.0674;stroke-linecap:butt;stroke-linejoin:round;stroke-dasharray:none;stroke-opacity:1;paint-order:normal"
   id="rect14"
   width="1058.7191"
   height="589.34491"
   x="-654.77777"
   y="509.30695"
   ry="85.390312"
   inkscape:label="rect14" /><path
   style="fill:url(#linearGradient2);stroke-width:4.4474"
   d="M -401.609,273.90578 V 140.50967 h 113.8759 113.87594 v 133.39611 133.3961 H -287.7331 -401.609 Z"
   id="path1"
   inkscape:export-filename="draft4.svg"
   inkscape:export-xdpi="96"
   inkscape:export-ydpi="96" /></g></g></svg>
